<!DOCTYPE svg PUBLIC "-//W3C//DTD SVG 20000303 Stylable//EN" "http://www.w3.org/TR/2000/03/WD-SVG-20000303/DTD/svg-20000303-stylable.dtd"[]><svg xmlns="http://www.w3.org/2000/svg" width="32px" height="30px" viewBox="0 0 788 236"><path style="fill:none;stroke:#4c4c4c;stroke-width:2" d="M178,120 l-178,0" /><path style="fill:none;stroke:#4c4c4c;stroke-width:2" d="M611,120 l177,0" /><path style="fill:#e9e9e9;stroke:#4c4c4c;stroke-width:2" d="M360,137 l-182,99 0,-236 182,101 -2,4 -1,4 -1,5 0,4 0,5 1,4 1,5 2,5z" /><path style="fill:none;stroke:#4c4c4c;stroke-width:2" d="M359,138 l-181,98" /><path style="fill:#e9e9e9;stroke:#4c4c4c;stroke-width:2" d="M429,99 l182,-99 0,236 -182,-101 2,-4 1,-4 1,-5 0,-4 0,-5 -1,-5 -1,-4 -2,-5z" /><circle style="fill:#e9e9e9;stroke:#4c4c4c;stroke-width:2" cx="395" cy="118" r="39" /></svg>
