<!DOCTYPE svg PUBLIC "-//W3C//DTD SVG 20000303 Stylable//EN" "http://www.w3.org/TR/2000/03/WD-SVG-20000303/DTD/svg-20000303-stylable.dtd"[]><svg xmlns="http://www.w3.org/2000/svg" width="32px" height="30px" viewBox="0 0 170 664"><path style="fill:#e9e9e9;stroke:#4c4c4c;stroke-width:2" d="M170,601 l0,-539 -5,-13 -8,-12 -9,-11 -10,-9 -12,-7 -13,-6 -14,-3 -14,-1 -14,1 -14,3 -13,6 -12,7 -11,9 -9,11 -7,12 -5,13 0,539 5,13 7,12 9,11 11,9 12,8 13,5 14,4 14,1 14,-1 14,-4 13,-5 12,-8 10,-9 9,-11 8,-12 5,-13z" /><path style="fill:none;stroke:#4c4c4c;stroke-width:2" d="M170,601 l-170,0" /><path style="fill:none;stroke:#4c4c4c;stroke-width:2" d="M0,62 l170,0" /></svg>
