<!DOCTYPE svg PUBLIC "-//W3C//DTD SVG 20000303 Stylable//EN" "http://www.w3.org/TR/2000/03/WD-SVG-20000303/DTD/svg-20000303-stylable.dtd"[]><svg xmlns="http://www.w3.org/2000/svg" width="32px" height="30px" viewBox="0 0 668 418">
<path style="fill:none;stroke:#4c4c4c;stroke-width:2" d="M167,0 l0,418" />
<path style="fill:none;stroke:#4c4c4c;stroke-width:2" d="M251,0 l0,418" />
<path style="fill:none;stroke:#4c4c4c;stroke-width:2" d="M334,0 l0,418" />
<path style="fill:none;stroke:#4c4c4c;stroke-width:2" d="M418,0 l0,418" />
<path style="fill:none;stroke:#4c4c4c;stroke-width:2" d="M501,0 l0,418" />
<path style="fill:none;stroke:#4c4c4c;stroke-width:2" d="M84,209 l501,0" />
<path style="fill:none;stroke:#4c4c4c;stroke-width:2" d="M0,42 l584,0" />
<path style="fill:none;stroke:#4c4c4c;stroke-width:2" d="M84,376 l584,0" />
<path style="fill:none;stroke:#4c4c4c;stroke-width:2" d="M84,375 l-10,-7 -8,-8 -8,-9 -6,-11 -5,-11 -4,-12 -2,-12 -1,-13 1,-13 2,-12 4,-12 5,-11 7,-11 7,-9 9,-8 9,-7" />
<path style="fill:none;stroke:#4c4c4c;stroke-width:2" d="M585,208 l9,-7 9,-8 7,-9 7,-10 5,-12 4,-12 2,-12 1,-13 -1,-13 -2,-12 -4,-12 -5,-11 -7,-10 -8,-10 -8,-8 -10,-6" /></svg>
