<?xml version="1.0" encoding="iso-8859-1"?>
<!DOCTYPE svg PUBLIC "-//W3C//DTD SVG 20000303 Stylable//EN"
"http://www.w3.org/TR/2000/03/WD-SVG-20000303/DTD/svg-20000303-stylable.dtd">

<svg xmlns="http://www.w3.org/2000/svg" width="0.2711in" height="0.3385in" viewBox="0 0 547 683">

<path style="fill:#d4d4d4;stroke:#000;stroke-width:2" d="M19,99 l48,0 0,517 -48,0 0,-517z" />
<path style="fill:#d4d4d4;stroke:#000;stroke-width:2" d="M480,99 l48,0 0,517 -48,0 0,-517z" />
<path style="fill:#d4d4d4;stroke:#000;stroke-width:2" d="M480,635 l0,-587 -10,-3 -10,-3 -11,-3 -11,-3 -12,-3 -12,-2 -13,-2 -13,-2 -13,-2 -14,-2 -14,-1 -14,-1 -15,-1 -14,0 -15,-1 -15,0 -15,0 -15,1 -15,0 -14,1 -15,1 -14,1 -14,2 -13,2 -13,2 -13,2 -12,2 -12,3 -12,3 -10,3 -10,3 -10,3 0,587 10,3 10,3 10,3 12,3 12,3 12,2 13,2 13,2 13,2 14,2 14,1 15,1 14,1 15,0 15,1 15,0 15,0 15,-1 14,0 15,-1 14,-1 14,-1 14,-2 13,-2 13,-2 13,-2 12,-2 12,-3 11,-3 11,-3 10,-3 10,-3z" />

</svg>
