<!DOCTYPE svg PUBLIC "-//W3C//DTD SVG 20000303 Stylable//EN" "http://www.w3.org/TR/2000/03/WD-SVG-20000303/DTD/svg-20000303-stylable.dtd"[]><svg xmlns="http://www.w3.org/2000/svg" width="32px" height="30px" viewBox="0 0 591 525">
<path style="fill:#e9e9e9;stroke:#4c4c4c;stroke-width:2" d="M431,147 l3,9 3,9 2,10 1,9 2,9 0,10 1,9 0,9 -1,23 -3,22 -6,21 -7,21 -10,19 -11,18 -12,17 -15,16 -15,14 -17,13 -19,11 -19,10 -20,7 -21,6 -22,3 -23,1 -23,-1 -22,-3 -21,-6 -20,-7 -20,-10 -18,-11 -17,-13 -16,-14 -14,-16 -13,-17 -11,-18 -9,-19 -8,-21 -5,-21 -4,-22 -1,-23 1,-23 4,-22 5,-21 8,-20 9,-19 11,-19 13,-17 14,-15 16,-15 17,-12 18,-11 20,-10 20,-7 21,-6 22,-3 23,-1 369,0 0,147 -160,0z" />
<path style="fill:#e9e9e9;stroke:#4c4c4c;stroke-width:2" d="M371,384 l-16,13 -16,12 -18,10 -18,9 -20,6 -20,5 -20,3 -21,1 -21,-1 -21,-3 -20,-5 -20,-7 -19,-9 -18,-10 -16,-12 -15,-13 -72,142 443,0 -72,-141z" /></svg>
