<!DOCTYPE svg PUBLIC "-//W3C//DTD SVG 20000303 Stylable//EN" "http://www.w3.org/TR/2000/03/WD-SVG-20000303/DTD/svg-20000303-stylable.dtd"[]><svg xmlns="http://www.w3.org/2000/svg" width="32px" height="30px" viewBox="0 0 393 498"><path style="fill:#e9e9e9;stroke:#4c4c4c;stroke-width:2" d="M391,445 l0,-393 -9,-6 -9,-5 -10,-6 -11,-5 -11,-4 -11,-5 -12,-3 -13,-4 -13,-3 -13,-3 -13,-2 -14,-2 -14,-2 -14,-1 -14,-1 -14,0 -14,0 -15,1 -14,1 -14,2 -13,2 -14,2 -13,3 -13,3 -12,4 -12,3 -12,5 -11,4 -10,5 -10,6 -9,5 -9,6 0,394 9,6 9,5 10,6 10,5 11,4 12,5 12,3 12,4 13,3 13,3 14,2 13,2 14,2 14,1 15,1 14,0 14,0 14,-1 14,-1 14,-2 14,-2 13,-2 13,-3 13,-4 13,-3 12,-4 11,-5 11,-4 11,-5 10,-6 9,-5 9,-6z" /><path style="fill:none;stroke:#4c4c4c;stroke-width:2" d="M0,445 l393,0" /><path style="fill:none;stroke:#4c4c4c;stroke-width:2" d="M0,52 l393,0" /></svg>
