<!DOCTYPE svg PUBLIC "-//W3C//DTD SVG 20000303 Stylable//EN" "http://www.w3.org/TR/2000/03/WD-SVG-20000303/DTD/svg-20000303-stylable.dtd"[]><svg xmlns="http://www.w3.org/2000/svg" width="32px" height="30px" viewBox="0 0 441 653">
<path style="fill:#e9e9e9;stroke:#4c4c4c;stroke-width:2" d="M0,653 l441,-220 0,220 -441,-220 0,220z" />
<path style="fill:none;stroke:#4c4c4c;stroke-width:2" d="M221,542 l0,-362" />
<path style="fill:#e9e9e9;stroke:#4c4c4c;stroke-width:2" d="M221,180 l-180,0 1,-18 3,-18 4,-17 6,-17 8,-16 9,-14 10,-14 12,-13 13,-12 14,-10 14,-9 16,-8 17,-6 17,-4 18,-3 18,-1 18,1 18,3 18,4 16,6 16,8 15,9 13,10 13,12 11,13 11,14 9,14 7,16 6,17 4,17 3,18 1,18 -179,0z" />
<path style="fill:none;stroke:#4c4c4c;stroke-width:2" d="M75,294 l293,0" />
</svg>
