<?xml version="1.0" encoding="iso-8859-1"?>
<!DOCTYPE svg PUBLIC "-//W3C//DTD SVG 20000303 Stylable//EN"
"http://www.w3.org/TR/2000/03/WD-SVG-20000303/DTD/svg-20000303-stylable.dtd">

<svg xmlns="http://www.w3.org/2000/svg" width="0.2229in" height="0.3385in" viewBox="0 0 376 571">

<path style="fill:#d4d4d4;stroke:#000;stroke-width:2" d="M360,530 l0,-490 -8,-3 -8,-2 -9,-3 -10,-2 -10,-2 -10,-2 -10,-2 -11,-2 -11,-1 -12,-1 -12,-1 -12,-1 -12,-1 -12,-1 -12,0 -13,0 -12,0 -13,0 -12,1 -12,1 -12,1 -12,1 -11,1 -11,1 -11,2 -11,2 -10,2 -10,2 -10,2 -9,3 -8,2 -8,3 0,490 8,3 8,2 9,3 10,2 10,2 10,3 11,1 11,2 11,2 11,1 12,1 12,1 12,1 12,1 13,0 12,0 13,0 12,0 12,-1 12,-1 12,-1 12,-1 12,-1 11,-2 11,-2 10,-1 10,-3 10,-2 10,-2 9,-3 8,-2 8,-3z" />

</svg>
